<svg width="1200" height="630" viewBox="0 0 1200 630" fill="none" xmlns="http://www.w3.org/2000/svg">
  <defs>
    <linearGradient id="bg" x1="0" y1="0" x2="1200" y2="630" gradientUnits="userSpaceOnUse">
      <stop stop-color="#FFF9F2"/>
      <stop offset="1" stop-color="#F8E7D8"/>
    </linearGradient>
    <linearGradient id="card" x1="0" y1="0" x2="1" y2="1">
      <stop stop-color="#FFFFFF" stop-opacity="0.97"/>
      <stop offset="1" stop-color="#FFF1E4" stop-opacity="0.92"/>
    </linearGradient>
    <linearGradient id="accent" x1="0" y1="0" x2="1" y2="1">
      <stop stop-color="#FB923C"/>
      <stop offset="1" stop-color="#EA580C"/>
    </linearGradient>
    <filter id="shadow" x="0" y="0" width="1200" height="630" filterUnits="userSpaceOnUse">
      <feDropShadow dx="0" dy="10" stdDeviation="20" flood-color="#7C2D12" flood-opacity="0.16"/>
    </filter>
    <filter id="soft" x="0" y="0" width="1200" height="630" filterUnits="userSpaceOnUse">
      <feDropShadow dx="0" dy="8" stdDeviation="18" flood-color="#EA580C" flood-opacity="0.10"/>
    </filter>
  </defs>

  <rect width="1200" height="630" fill="url(#bg)"/>

  <circle cx="1036" cy="112" r="84" fill="#FDBA74" opacity="0.18"/>
  <circle cx="1102" cy="76" r="24" fill="#FB923C" opacity="0.24"/>
  <circle cx="122" cy="92" r="18" fill="#F59E0B" opacity="0.16"/>

  <path d="M70 494C190 454 266 456 390 500C511 543 598 543 724 490C865 433 968 435 1132 500" stroke="#D97757" stroke-width="8" stroke-linecap="round" opacity="0.28"/>
  <path d="M70 532C191 492 267 494 392 538C513 581 600 581 726 528C867 471 970 473 1132 540" stroke="#9A3412" stroke-width="8" stroke-linecap="round" opacity="0.18"/>

  <text x="86" y="96" fill="#9A3412" font-size="26" font-family="Inter, Arial, sans-serif" font-weight="700" letter-spacing="0.08em">SLIDE DECK</text>

  <g filter="url(#shadow)">
    <text x="84" y="188" fill="#111827" font-size="72" font-family="Inter, 'Hiragino Sans', 'Noto Sans JP', Arial, sans-serif" font-weight="800">OpenClaw は</text>
    <text x="84" y="274" fill="#111827" font-size="72" font-family="Inter, 'Hiragino Sans', 'Noto Sans JP', Arial, sans-serif" font-weight="800">何が偉大だったのか</text>
  </g>

  <text x="88" y="388" fill="#C2410C" font-size="30" font-family="Inter, 'Hiragino Sans', 'Noto Sans JP', Arial, sans-serif" font-weight="700">人々の想像力を爆発させた、パーソナルAIアシスタント</text>

  <rect x="84" y="446" width="500" height="2" fill="#C2410C" opacity="0.34"/>

  <g filter="url(#soft)">
    <rect x="790" y="178" width="214" height="176" rx="26" fill="url(#card)" stroke="#F3C7A7"/>
  </g>

  <g>
    <rect x="820" y="212" width="154" height="108" rx="20" fill="#FFF7ED" stroke="#FDBA74" stroke-width="4"/>
    <circle cx="853" cy="250" r="14" fill="url(#accent)"/>
    <path d="M848 250L851 254L860 245" stroke="white" stroke-width="4" stroke-linecap="round" stroke-linejoin="round"/>
    <rect x="880" y="238" width="80" height="12" rx="6" fill="#FDBA74" opacity="0.92"/>
    <rect x="880" y="260" width="60" height="10" rx="5" fill="#FED7AA"/>
    <rect x="880" y="280" width="84" height="10" rx="5" fill="#E5E7EB"/>
  </g>

  <g>
    <path d="M772 196C772 174 790 156 812 156H848C870 156 888 174 888 196C888 218 870 236 848 236H835L812 256L816 236H812C790 236 772 218 772 196Z" fill="#FFE7C2" stroke="#FDBA74" stroke-width="4"/>
    <circle cx="813" cy="196" r="18" fill="#F59E0B"/>
    <text x="803" y="203" fill="#FFF7ED" font-size="20" font-family="Inter, Arial, sans-serif" font-weight="800">?</text>
  </g>

  <g>
    <path d="M900 138C900 116 918 98 940 98H970C992 98 1010 116 1010 138C1010 160 992 178 970 178H956L936 196L940 178H940C918 178 900 160 900 138Z" fill="#1F2937" opacity="0.94"/>
    <circle cx="939" cy="138" r="15" fill="#FB923C"/>
    <path d="M932 138L936 143L946 133" stroke="#FFF7ED" stroke-width="4" stroke-linecap="round" stroke-linejoin="round"/>
  </g>

  <text x="88" y="526" fill="#7C2D12" font-size="28" font-family="Inter, 'Hiragino Sans', 'Noto Sans JP', Arial, sans-serif" font-weight="700">t0yohei / 五反田AI vol.2</text>
  <text x="88" y="568" fill="#6B7280" font-size="22" font-family="Inter, Arial, sans-serif" font-weight="500">OpenClaw / personal AI assistant / imagination</text>
</svg>
