<svg width="1200" height="630" viewBox="0 0 1200 630" fill="none" xmlns="http://www.w3.org/2000/svg">
  <defs>
    <linearGradient id="bg" x1="0" y1="0" x2="1200" y2="630" gradientUnits="userSpaceOnUse">
      <stop stop-color="#FFF9F2"/>
      <stop offset="1" stop-color="#F8E7D8"/>
    </linearGradient>
    <linearGradient id="card" x1="0" y1="0" x2="1" y2="1">
      <stop stop-color="#FFFFFF" stop-opacity="0.97"/>
      <stop offset="1" stop-color="#FFF1E4" stop-opacity="0.92"/>
    </linearGradient>
    <linearGradient id="accent" x1="0" y1="0" x2="1" y2="1">
      <stop stop-color="#FB923C"/>
      <stop offset="1" stop-color="#EA580C"/>
    </linearGradient>
    <filter id="shadow" x="0" y="0" width="1200" height="630" filterUnits="userSpaceOnUse">
      <feDropShadow dx="0" dy="10" stdDeviation="20" flood-color="#7C2D12" flood-opacity="0.16"/>
    </filter>
    <filter id="soft" x="0" y="0" width="1200" height="630" filterUnits="userSpaceOnUse">
      <feDropShadow dx="0" dy="8" stdDeviation="18" flood-color="#EA580C" flood-opacity="0.10"/>
    </filter>
  </defs>

  <rect width="1200" height="630" fill="url(#bg)"/>

  <circle cx="1036" cy="112" r="84" fill="#FDBA74" opacity="0.18"/>
  <circle cx="1102" cy="76" r="24" fill="#FB923C" opacity="0.24"/>
  <circle cx="122" cy="92" r="18" fill="#F59E0B" opacity="0.16"/>

  <path d="M70 494C190 454 266 456 390 500C511 543 598 543 724 490C865 433 968 435 1132 500" stroke="#D97757" stroke-width="8" stroke-linecap="round" opacity="0.28"/>
  <path d="M70 532C191 492 267 494 392 538C513 581 600 581 726 528C867 471 970 473 1132 540" stroke="#9A3412" stroke-width="8" stroke-linecap="round" opacity="0.18"/>

  <text x="86" y="96" fill="#9A3412" font-size="26" font-family="Inter, Arial, sans-serif" font-weight="700" letter-spacing="0.08em">SLIDE DECK</text>

  <g filter="url(#shadow)">
    <text x="84" y="188" fill="#111827" font-size="72" font-family="Inter, 'Hiragino Sans', 'Noto Sans JP', Arial, sans-serif" font-weight="800">OpenClaw は</text>
    <text x="84" y="274" fill="#111827" font-size="72" font-family="Inter, 'Hiragino Sans', 'Noto Sans JP', Arial, sans-serif" font-weight="800">何が偉大だったのか</text>
  </g>

  <text x="88" y="388" fill="#C2410C" font-size="30" font-family="Inter, 'Hiragino Sans', 'Noto Sans JP', Arial, sans-serif" font-weight="700">人々の想像力を爆発させた、パーソナルAIアシスタント</text>

  <rect x="84" y="446" width="500" height="2" fill="#C2410C" opacity="0.34"/>

  <g filter="url(#soft)">
    <rect x="844" y="136" width="214" height="176" rx="26" fill="url(#card)" stroke="#F3C7A7"/>
  </g>

  <g>
    <rect x="874" y="170" width="154" height="108" rx="20" fill="#FFF7ED" stroke="#FDBA74" stroke-width="4"/>
    <circle cx="907" cy="208" r="14" fill="url(#accent)"/>
    <path d="M902 208L905 212L914 203" stroke="white" stroke-width="4" stroke-linecap="round" stroke-linejoin="round"/>
    <rect x="934" y="196" width="80" height="12" rx="6" fill="#FDBA74" opacity="0.92"/>
    <rect x="934" y="218" width="60" height="10" rx="5" fill="#FED7AA"/>
    <rect x="934" y="238" width="84" height="10" rx="5" fill="#E5E7EB"/>
  </g>

  <g>
    <path d="M826 154C826 132 844 114 866 114H902C924 114 942 132 942 154C942 176 924 194 902 194H889L866 214L870 194H866C844 194 826 176 826 154Z" fill="#FFE7C2" stroke="#FDBA74" stroke-width="4"/>
    <circle cx="867" cy="154" r="18" fill="#F59E0B"/>
    <text x="857" y="161" fill="#FFF7ED" font-size="20" font-family="Inter, Arial, sans-serif" font-weight="800">?</text>
  </g>

  <g>
    <path d="M954 96C954 74 972 56 994 56H1024C1046 56 1064 74 1064 96C1064 118 1046 136 1024 136H1010L990 154L994 136H994C972 136 954 118 954 96Z" fill="#1F2937" opacity="0.94"/>
    <circle cx="993" cy="96" r="15" fill="#FB923C"/>
    <path d="M986 96L990 101L1000 91" stroke="#FFF7ED" stroke-width="4" stroke-linecap="round" stroke-linejoin="round"/>
  </g>

  <text x="88" y="526" fill="#7C2D12" font-size="28" font-family="Inter, 'Hiragino Sans', 'Noto Sans JP', Arial, sans-serif" font-weight="700">t0yohei / 五反田AI vol.2</text>
  <text x="88" y="568" fill="#6B7280" font-size="22" font-family="Inter, Arial, sans-serif" font-weight="500">OpenClaw / personal AI assistant / imagination</text>
</svg>
