<svg width="1200" height="630" viewBox="0 0 1200 630" fill="none" xmlns="http://www.w3.org/2000/svg">
  <defs>
    <linearGradient id="bg" x1="0" y1="0" x2="1200" y2="630" gradientUnits="userSpaceOnUse">
      <stop stop-color="#FFF9F2"/>
      <stop offset="1" stop-color="#F8E7D8"/>
    </linearGradient>
    <linearGradient id="card" x1="0" y1="0" x2="1" y2="1">
      <stop stop-color="#FFFFFF" stop-opacity="0.97"/>
      <stop offset="1" stop-color="#FFF1E4" stop-opacity="0.92"/>
    </linearGradient>
    <linearGradient id="accent" x1="0" y1="0" x2="1" y2="1">
      <stop stop-color="#FB923C"/>
      <stop offset="1" stop-color="#EA580C"/>
    </linearGradient>
    <filter id="shadow" x="0" y="0" width="1200" height="630" filterUnits="userSpaceOnUse">
      <feDropShadow dx="0" dy="10" stdDeviation="20" flood-color="#7C2D12" flood-opacity="0.16"/>
    </filter>
    <filter id="soft" x="0" y="0" width="1200" height="630" filterUnits="userSpaceOnUse">
      <feDropShadow dx="0" dy="8" stdDeviation="18" flood-color="#EA580C" flood-opacity="0.10"/>
    </filter>
  </defs>

  <rect width="1200" height="630" fill="url(#bg)"/>

  <circle cx="1036" cy="112" r="84" fill="#FDBA74" opacity="0.18"/>
  <circle cx="1102" cy="76" r="24" fill="#FB923C" opacity="0.24"/>
  <circle cx="122" cy="92" r="18" fill="#F59E0B" opacity="0.16"/>

  <path d="M70 494C190 454 266 456 390 500C511 543 598 543 724 490C865 433 968 435 1132 500" stroke="#D97757" stroke-width="8" stroke-linecap="round" opacity="0.28"/>
  <path d="M70 532C191 492 267 494 392 538C513 581 600 581 726 528C867 471 970 473 1132 540" stroke="#9A3412" stroke-width="8" stroke-linecap="round" opacity="0.18"/>

  <text x="86" y="96" fill="#9A3412" font-size="26" font-family="Inter, Arial, sans-serif" font-weight="700" letter-spacing="0.08em">SLIDE DECK</text>

  <g filter="url(#shadow)">
    <text x="84" y="188" fill="#111827" font-size="72" font-family="Inter, 'Hiragino Sans', 'Noto Sans JP', Arial, sans-serif" font-weight="800">OpenClaw は</text>
    <text x="84" y="274" fill="#111827" font-size="72" font-family="Inter, 'Hiragino Sans', 'Noto Sans JP', Arial, sans-serif" font-weight="800">何が偉大だったのか</text>
  </g>

  <text x="88" y="360" fill="#C2410C" font-size="34" font-family="Inter, 'Hiragino Sans', 'Noto Sans JP', Arial, sans-serif" font-weight="700">人々の想像力を爆発させた、</text>
  <text x="88" y="414" fill="#374151" font-size="34" font-family="Inter, 'Hiragino Sans', 'Noto Sans JP', Arial, sans-serif" font-weight="600">パーソナルAIアシスタント</text>

  <rect x="84" y="462" width="470" height="2" fill="#C2410C" opacity="0.34"/>

  <g filter="url(#soft)">
    <rect x="684" y="146" width="312" height="244" rx="34" fill="url(#card)" stroke="#F3C7A7"/>
  </g>

  <g>
    <rect x="728" y="196" width="224" height="148" rx="26" fill="#FFF7ED" stroke="#FDBA74" stroke-width="4"/>
    <circle cx="772" cy="248" r="20" fill="url(#accent)"/>
    <path d="M765 248L770 253L782 241" stroke="white" stroke-width="5" stroke-linecap="round" stroke-linejoin="round"/>
    <rect x="806" y="232" width="114" height="16" rx="8" fill="#FDBA74" opacity="0.92"/>
    <rect x="806" y="262" width="88" height="14" rx="7" fill="#FED7AA"/>
    <rect x="806" y="290" width="124" height="14" rx="7" fill="#E5E7EB"/>
  </g>

  <g>
    <path d="M662 182C662 154 685 132 713 132H759C787 132 810 154 810 182C810 210 787 232 759 232H741L713 256L718 232H713C685 232 662 210 662 182Z" fill="#FFE7C2" stroke="#FDBA74" stroke-width="4"/>
    <circle cx="714" cy="182" r="24" fill="#F59E0B"/>
    <text x="701" y="191" fill="#FFF7ED" font-size="26" font-family="Inter, Arial, sans-serif" font-weight="800">?</text>
  </g>

  <g>
    <path d="M850 104C850 76 873 54 901 54H939C967 54 990 76 990 104C990 132 967 154 939 154H920L895 178L900 154H901C873 154 850 132 850 104Z" fill="#1F2937" opacity="0.94"/>
    <circle cx="900" cy="104" r="20" fill="#FB923C"/>
    <path d="M890 104L896 111L910 97" stroke="#FFF7ED" stroke-width="5" stroke-linecap="round" stroke-linejoin="round"/>
  </g>

  <text x="88" y="526" fill="#7C2D12" font-size="28" font-family="Inter, 'Hiragino Sans', 'Noto Sans JP', Arial, sans-serif" font-weight="700">t0yohei / 五反田AI vol.2</text>
  <text x="88" y="568" fill="#6B7280" font-size="22" font-family="Inter, Arial, sans-serif" font-weight="500">OpenClaw / personal AI assistant / imagination</text>
</svg>
